<?xml version="1.0" encoding="UTF-8"?>
<svg xmlns="http://www.w3.org/2000/svg" version="1.1" viewBox="0 0 1024 1024">
  <defs>
    <style>
      .cls-1 {
        fill: #25aff4;
      }
    </style>
  </defs>
  <!-- Generator: Adobe Illustrator 28.7.0, SVG Export Plug-In . SVG Version: 1.2.0 Build 136)  -->
  <g>
    <g id="_레이어_1" data-name="레이어_1">
      <g>
        <path class="cls-1" d="M154.4,443.2v116.4c0,4.1,3.4,7.5,7.5,7.5h73.5v36.8h-73.5c-24.5,0-44.3-19.7-44.3-44.3v-217.9h36.8v64.7h81v36.8h-81Z"/>
        <path class="cls-1" d="M450.9,529v108.9c0,24.5-19.8,44.3-44.3,44.3h-121.9v-36.8h121.9c4.1,0,7.5-3.4,7.5-7.5v-34h-119.8c-24.5,0-44.3-19.7-44.3-44.3v-152.5h36.8v152.5c0,4.1,3.4,7.5,7.5,7.5h112.3c4.1,0,7.5-3.4,7.5-7.5v-152.5h36.8v121.9Z"/>
        <path class="cls-1" d="M684.8,450.7v108.9c0,24.5-19.7,44.3-44.3,44.3h-119.8v78.3h-36.8v-275.8h156.6c24.5,0,44.3,19.7,44.3,44.3ZM648,450.7c0-4.1-3.4-7.5-7.5-7.5h-112.4c-4.1,0-7.5,3.4-7.5,7.5v108.9c0,4.1,3.4,7.5,7.5,7.5h112.4c4.1,0,7.5-3.4,7.5-7.5v-108.9Z"/>
        <path class="cls-1" d="M862.1,406.5c24.5,0,44.3,19.7,44.3,44.3v108.9c0,24.5-19.7,44.3-44.3,44.3h-112.3c-24.5,0-44.3-19.7-44.3-44.3v-108.9c0-24.5,19.7-44.3,44.3-44.3h112.3ZM749.8,443.2c-4.1,0-7.5,3.4-7.5,7.5v108.9c0,4.1,3.4,7.5,7.5,7.5h112.3c4.1,0,7.5-3.4,7.5-7.5v-108.9c0-4.1-3.4-7.5-7.5-7.5h-112.3Z"/>
      </g>
    </g>
  </g>
</svg>